HIERARCHY
ROOT Hips
{
  OFFSET 0 0 0
  CHANNELS 6 Xposition Yposition Zposition Zrotation Yrotation Xrotation
  JOINT LeftThigh
  {
    OFFSET 8.409438 0 -5.917753
    CHANNELS 3 Zrotation Yrotation Xrotation
    JOINT LeftLeg
    {
      OFFSET 0 0 -42.358652
      CHANNELS 3 Zrotation Yrotation Xrotation
      JOINT LeftFoot
      {
        OFFSET 0 0 -39.357303
        CHANNELS 3 Zrotation Yrotation Xrotation
      }
    }
  }
  JOINT RightThigh
  {
    OFFSET -8.409438 0 -5.917753
    CHANNELS 3 Zrotation Yrotation Xrotation
    JOINT RightLeg
    {
      OFFSET 0 0 -42.358652
      CHANNELS 3 Zrotation Yrotation Xrotation
      JOINT RightFoot
      {
        OFFSET 0 0 -39.357303
        CHANNELS 3 Zrotation Yrotation Xrotation
      }
    }
  }
  JOINT SpineLow
  {
    OFFSET 0 0 4.719101
    CHANNELS 3 Zrotation Yrotation Xrotation
    JOINT SpineMid
    {
      OFFSET 0 0 12.899191
      CHANNELS 3 Zrotation Yrotation Xrotation
      JOINT Chest
      {
        OFFSET 0 0 12.899191
        CHANNELS 3 Zrotation Yrotation Xrotation
        JOINT LeftShoulder
        {
          OFFSET 7.550562 1.41573 9.438202
          CHANNELS 3 Zrotation Yrotation Xrotation
          JOINT LeftArm
          {
            OFFSET 9.155056 0 4.247191
            CHANNELS 3 Zrotation Yrotation Xrotation
            JOINT LeftForearm
            {
              OFFSET 0 0 25.771955
              CHANNELS 3 Zrotation Yrotation Xrotation
              JOINT LeftHand
              {
                OFFSET 0 0 25.197169
                CHANNELS 3 Zrotation Yrotation Xrotation
              }
            }
          }
        }
        JOINT RightShoulder
        {
          OFFSET -7.550562 1.41573 9.438202
          CHANNELS 3 Zrotation Yrotation Xrotation
          JOINT RightArm
          {
            OFFSET -9.155056 0 4.247191
            CHANNELS 3 Zrotation Yrotation Xrotation
            JOINT RightForearm
            {
              OFFSET 0 0 -25.771955
              CHANNELS 3 Zrotation Yrotation Xrotation
              JOINT RightHand
              {
                OFFSET 0 0 -25.197169
                CHANNELS 3 Zrotation Yrotation Xrotation
              }
            }
          }
        }
        JOINT Neck
        {
          OFFSET 0 0 15.101124
          CHANNELS 3 Zrotation Yrotation Xrotation
          JOINT Head
          {
            OFFSET 0 0 11.325843
            CHANNELS 3 Zrotation Yrotation Xrotation
            End Site
            {
              OFFSET 0 0 14.157303
            }
          }
        }
      }
    }
  }
}
MOTION
Frames: 8
Frame Time: 0.0
0.0  89.887642  0.0  78.044545  -32.501013  -167.613751  -25.026288  -50.417436  -3.20101  11.542209  32.765605  41.008555  -7.419755  2.772481  8.652007  6.79187  38.578542  -7.142673  20.33889  14.436971  31.272882  6.000723  -0.198363  -1.846103  1.116333  4.591156  1.575363  3.389299  12.466361  4.569481  3.389299  12.46636  4.56948  4.194154  6.750304  6.775708  177.407322  52.442755  -160.865511  -29.741486  -15.615697  90.041441  77.105425  68.852937  -3.753999  11.936822  -7.969722  19.692107  129.982877  32.636586  43.289466  -19.930489  8.261255  -88.531891  85.30731  14.503774  8.02414  18.28508  18.768254  14.930764  13.124087  14.541917  10.526697  
0.0  89.887642  0.0  76.591408  -32.431727  -166.382973  -15.072769  -51.243164  -11.006872  8.809999  35.988407  43.210447  -6.582839  2.311924  9.254125  7.013561  38.42794  -6.494411  20.085625  13.893545  31.465748  5.458344  -0.149279  -1.738136  1.201355  4.53814  1.568216  3.618247  12.315899  4.56207  3.618247  12.315899  4.56207  4.090559  6.968392  7.182182  174.851405  53.126343  -160.9974  -29.215294  -15.956981  90.174154  78.080874  69.277945  -1.775865  11.337706  -7.774221  19.971254  128.485689  32.934393  42.557338  -20.339596  8.531856  -88.839678  85.269001  14.427772  8.910712  18.08672  18.37175  15.336509  12.980463  14.251635  10.852038  
0.0  89.887642  0.0  74.95448  -32.410626  -164.955274  -6.8743  -51.690496  -18.026943  8.998825  38.531803  46.921823  -5.819775  1.721204  9.753012  7.908559  38.222011  -5.261768  19.400271  13.080834  31.542781  4.828299  -0.089115  -1.686863  1.260644  4.509241  1.590884  3.783733  12.231356  4.633653  3.783733  12.231355  4.633653  3.965328  6.895929  7.326305  172.261746  53.456258  -161.042663  -28.760613  -16.409578  90.201875  79.039538  69.81839  0.144  10.807651  -7.709072  19.83674  127.099844  33.209105  41.923087  -21.242075  8.96859  -89.004311  85.002116  14.484567  9.482683  17.794198  17.868935  15.502115  12.778319  13.871518  11.005677  
0.0  89.887642  0.0  73.151052  -32.469544  -163.383126  -0.51286  -52.428737  -24.288547  11.924172  40.695801  52.249281  -5.182371  1.097433  10.055851  8.653728  37.849979  -4.034065  18.599679  12.435286  31.43228  4.436059  -0.04451  -1.653186  1.269207  4.456944  1.609796  3.806345  12.086782  4.683452  3.806345  12.086781  4.683452  4.08584  6.869291  7.346311  169.494369  53.548927  -161.252117  -28.440911  -16.84724  90.130593  79.951658  70.448426  1.974014  10.531495  -7.562115  19.521648  125.781367  33.452462  41.364087  -22.037649  9.185859  -89.170155  84.733725  14.494057  9.995792  17.599609  17.401325  15.592267  12.64964  13.518052  11.098223  
0.0  89.887642  0.0  70.436149  -32.672034  -160.621077  4.799256  -53.541744  -30.817557  16.543459  42.284216  58.44863  -4.734331  0.438242  10.16423  7.587967  37.037074  -4.083494  17.826113  12.193745  31.211764  5.177942  0.408659  -1.309027  1.132703  4.325228  1.549812  3.407565  11.740389  4.48337  3.407565  11.740389  4.48337  4.40123  6.95992  7.306302  166.653255  53.444661  -161.456521  -28.204823  -17.214014  90.010072  80.728675  71.183757  3.557886  10.381947  -7.301424  19.043106  124.514016  33.622547  40.874455  -22.824463  9.236781  -89.209832  84.322181  14.534741  10.208675  17.486091  17.032536  15.651627  12.578092  13.239968  11.161028  
0.0  89.887642  0.0  68.163522  -32.782945  -158.778566  8.242509  -54.171754  -34.766101  21.471962  43.196635  64.162791  -4.234955  -0.166496  10.227223  6.76613  36.13662  -3.705363  17.059805  12.344076  30.975164  5.114376  0.49753  -1.313071  1.086827  4.190016  1.578409  3.274994  11.372843  4.544937  3.274994  11.372843  4.544937  4.58415  7.212977  7.314561  163.887601  53.259469  -161.754956  -28.047611  -17.421352  89.822534  81.326642  71.836232  4.772369  10.202698  -6.930218  18.622013  123.238063  33.734349  40.415461  -23.347131  9.09694  -89.199609  83.878193  14.536161  10.304157  17.463534  16.733555  15.780183  12.569614  13.018753  11.269844  
0.0  89.887642  0.0  65.645862  -32.930799  -156.698417  10.92496  -54.845577  -37.932403  26.072175  44.081176  69.200488  -3.551526  -0.670571  10.250763  5.373836  35.020081  -3.629203  16.46265  12.721233  30.694783  5.065027  0.557327  -1.401934  1.02729  4.009006  1.583572  3.097047  10.88246  4.537277  3.097047  10.88246  4.537277  4.715098  7.587357  7.483899  161.188315  52.987773  -161.993493  -27.944117  -17.500744  89.627  81.592075  72.353424  5.314588  9.936137  -6.494114  18.294131  121.897234  33.835877  39.962267  -23.660334  8.837478  -89.164367  83.455913  14.515604  10.246075  17.535374  16.445678  15.967998  12.629541  12.810188  11.419833  
0.0  89.887642  0.0  63.154655  -33.019646  -154.88504  12.862115  -55.847031  -40.247526  30.871571  45.337292  74.261543  -2.742013  -1.111617  10.147102  3.962569  33.860785  -3.437272  15.887856  13.003683  30.424884  5.10776  0.593421  -1.395425  1.012225  3.822088  1.631554  3.048154  10.370692  4.655303  3.048154  10.370693  4.655302  4.70332  7.954774  7.872344  158.528999  52.70196  -162.082865  -27.963015  -17.543618  89.429398  81.05552  72.695508  4.818229  9.472569  -6.038067  18.017124  120.596955  33.95703  39.525336  -23.82944  8.51441  -89.114538  83.192025  14.487278  10.186026  17.577063  16.082216  16.126747  12.670865  12.543225  11.552107  
